<svg xmlns="http://www.w3.org/2000/svg" xmlns:xlink="http://www.w3.org/1999/xlink" width="1200" height="190.345" viewBox="0 0 1200 190.345">
  <defs>
    <clipPath id="clip-path">
      <rect id="사각형_25" data-name="사각형 25" width="1200" height="189.475" fill="none"/>
    </clipPath>
  </defs>
  <g id="그룹_20" data-name="그룹 20" transform="translate(-206 97)">
    <g id="그룹_19" data-name="그룹 19" transform="translate(206 -97)">
      <g id="그룹_18" data-name="그룹 18" clip-path="url(#clip-path)">
        <path id="패스_16" data-name="패스 16" d="M61.112,100.87C52.829,68.2,44.532,35.175,36.413,2.577l-.262-1.05L0,1.562V188.921l1.54-.139c9.629-.877,14.443-1.307,24.073-2.15l1.283-.113.032-123.9c10.049,40,20.3,80.374,30.524,120.153l.29,1.134,1.195-.1c11-.9,16.5-1.344,27.5-2.2l1.295-.1L87.879,1.48l-26.7.023Z" transform="translate(0 0.554)" fill="#e50914"/>
        <path id="패스_17" data-name="패스 17" d="M80.833,179.538l1.515-.11c24.294-1.758,48.874-3.431,73.051-4.97l1.314-.085.038-27.068-1.489.081q-22.4,1.225-44.8,2.537l.058-47.977c13.826-.547,21.175-.825,35.434-1.344l1.354-.048.037-27.149-1.45.04c-14.226.388-21.577.6-35.341,1.006l.055-45.5q22.455-.235,44.909-.452l1.393-.012.037-27.065-75.935.059Z" transform="translate(33.043 0.532)" fill="#e50914"/>
        <path id="패스_18" data-name="패스 18" d="M145.985,28.356l1.425-.014c10.725-.1,16.319-.146,26.6-.234L173.8,171.815l1.492-.082c10.72-.592,16.08-.878,26.8-1.428l1.333-.069.214-142.366c10.3-.082,15.9-.124,26.633-.2l1.395-.011.041-26.283-85.687.052Z" transform="translate(59.677 0.515)" fill="#e50914"/>
        <path id="패스_19" data-name="패스 19" d="M219.885,168.026l1.474-.065c10.725-.47,16.088-.694,26.815-1.12l1.35-.054.095-67.161c12.945-.3,19.861-.455,33.241-.728l1.38-.027.032-25.809-1.431.022c-13.363.208-20.277.322-33.185.553l.068-46.285q21.358-.13,42.717-.235l1.4-.023.032-25.747-73.743.032Z" transform="translate(89.886 0.504)" fill="#e50914"/>
        <path id="패스_20" data-name="패스 20" d="M316.03,138.2l.145-136.864-29.628.008-.192,163.232,1.453-.041c25.3-.741,48.509-1.3,70.969-1.718l1.38-.025.021-25.423-1.434.022c-14.3.227-28.664.5-42.714.808" transform="translate(117.058 0.499)" fill="#e50914"/>
        <path id="패스_21" data-name="패스 21" d="M351.979,162.476l1.433-.023c10.733-.168,16.1-.239,26.831-.363l1.393-.016.083-160.754-29.628,0Z" transform="translate(143.884 0.494)" fill="#e50914"/>
        <path id="패스_22" data-name="패스 22" d="M458.141,79.239Q472.079,41.2,485.992,3.154l.671-1.836H458.8l-.327.926Q448.788,29.724,439.1,57.2q-9.456-27.473-18.906-54.949l-.321-.936h-30.8l.669,1.836q13.906,38.056,27.847,76.1-14.939,40.383-29.853,80.774l-.687,1.857,2.024-.016c10.05-.08,15.077-.111,25.127-.153l1,0,.327-.925q10.427-29.655,20.867-59.305l20.951,60.2,1.006,0c11.321.028,16.98.054,28.3.131l2.019.014-.684-1.854Q473.076,119.6,458.141,79.239" transform="translate(158.223 0.493)" fill="#e50914"/>
        <path id="패스_23" data-name="패스 23" d="M582.233,1.345l-.183,1.167q-8.383,53.262-16.813,106.521Q556.043,55.755,546.811,2.477l-.2-1.145L506.72,1.324l.123,161.312,1.384.025c9.364.162,14.046.254,23.413.449l1.44.032L532.99,62.85q8.662,49.78,17.3,99.567l.194,1.116,1.161.029c10.144.245,15.217.377,25.362.658l1.245.033.189-1.2q7.827-49.968,15.615-99.937l.121,101.606,1.362.041c10.145.311,15.216.477,25.361.826l1.459.052L622.141,1.358Z" transform="translate(207.14 0.496)" fill="#e50914"/>
        <path id="패스_24" data-name="패스 24" d="M689.3,1.4l-28.164-.018.192,128.529c.008,5.426-1.188,9.3-3.557,11.529-1.993,1.871-4.884,2.713-8.848,2.55-8.675-.34-12.554-4.982-12.568-15.05L636.17,1.37l-29.627-.015.177,125.034c-1.343,23.4,16.433,42.316,41.351,44q1.488.1,2.945.1a37.723,37.723,0,0,0,26.111-9.984c8.218-7.7,12.725-19.12,12.367-31.3Z" transform="translate(247.946 0.507)" fill="#e50914"/>
        <path id="패스_25" data-name="패스 25" d="M733.136,78.434c-11.723-10.682-22.566-22.472-22.512-36.282.022-6.013,1.24-10.1,3.728-12.5,1.893-1.824,4.564-2.7,8.232-2.666,5.59.048,12.009,1.86,12.03,15.547l.012,8.41,1.381.025c10.134.177,15.2.271,25.339.459l1.437.026-.006-6.777c.311-13.105-4.442-25.445-13.044-33.856A38.008,38.008,0,0,0,721.8.007a41.393,41.393,0,0,0-29.156,12.346A42.078,42.078,0,0,0,681,43.5c.863,24.745,16.494,41.991,30.016,54.25,11.158,10.114,22.556,22.392,22.506,36.764-.019,5.722-1.274,9.769-3.728,12.03-1.979,1.823-4.809,2.617-8.653,2.409-8.567-.451-12.565-5.451-12.577-15.739l-.019-13.366L707.2,119.8c-10.138-.416-15.209-.617-25.35-1.006l-1.465-.056.019,11.633c-1.331,24,16.429,43.711,41.31,45.837q1.787.153,3.532.153a35.026,35.026,0,0,0,23.7-8.848c8.777-7.781,14.087-20.249,14.2-33.356.159-18.691-9.932-37.437-30-55.719" transform="translate(278.109 0)" fill="#e50914"/>
        <path id="패스_26" data-name="패스 26" d="M754.806,1.45l.206,176.454,1.3.091c10.713.757,16.068,1.146,26.776,1.946l1.518.113L784.435,1.475Z" transform="translate(308.555 0.543)" fill="#e50914"/>
        <path id="패스_27" data-name="패스 27" d="M875.81,143.691V117.885l-1.325-.076c-10.126-.581-15.189-.866-25.317-1.423l-1.489-.082.006,27.49c0,6.32-1.314,10.716-3.914,13.069-1.961,1.772-4.72,2.5-8.435,2.227-5.4-.4-12.571-2.607-12.58-17.12L822.7,44.815c0-6.32,1.347-10.825,4.01-13.394,2-1.928,4.792-2.823,8.444-2.8,5.366.063,12.5,1.872,12.5,16.76l.005,20.857,1.363.043c10.134.3,15.2.458,25.33.775l1.453.045V47.788c.267-15.02-4.408-28.086-13.164-36.8C855.443,3.827,845.687.029,834.433.006h-.093c-11.553,0-21.677,4.144-29.282,11.985-8.377,8.637-12.739,21.091-11.97,34.086l.073,92.424c-.41,26.647,16.14,46.5,41.186,49.387a40.437,40.437,0,0,0,4.64.271,33.37,33.37,0,0,0,22.678-8.5c9.258-8.251,14.546-21.71,14.146-35.969" transform="translate(324.168 0.002)" fill="#e50914"/>
      </g>
    </g>
    <rect id="사각형_26" data-name="사각형 26" width="1200" height="190.345" transform="translate(206 -97)" fill="none"/>
  </g>
</svg>
