<svg xmlns="http://www.w3.org/2000/svg" xmlns:xlink="http://www.w3.org/1999/xlink" width="145" height="23" viewBox="0 0 145 23">
  <defs>
    <clipPath id="clip-path">
      <rect id="사각형_25" data-name="사각형 25" width="145" height="22.895" fill="#fff"/>
    </clipPath>
  </defs>
  <g id="그룹_23" data-name="그룹 23" transform="translate(-206 97)">
    <g id="그룹_19" data-name="그룹 19" transform="translate(206 -97)">
      <g id="그룹_18" data-name="그룹 18" clip-path="url(#clip-path)">
        <path id="패스_16" data-name="패스 16" d="M7.384,13.49c-1-3.948-2-7.938-2.984-11.877l-.032-.127L0,1.49V24.129l.186-.017c1.164-.106,1.745-.158,2.909-.26l.155-.014,0-14.971C4.468,13.7,5.707,18.579,6.942,23.386l.035.137.144-.012c1.329-.109,1.993-.162,3.322-.266l.156-.012L10.619,1.48l-3.227,0Z" transform="translate(0 -1.234)" fill="#fff"/>
        <path id="패스_17" data-name="패스 17" d="M80.833,22.943l.183-.013c2.936-.212,5.906-.415,8.827-.6l.159-.01,0-3.271-.18.01q-2.707.148-5.413.307l.007-5.8c1.671-.066,2.559-.1,4.282-.162l.164-.006,0-3.281-.175,0c-1.719.047-2.607.072-4.27.122l.007-5.5,5.427-.055h.168l0-3.27-9.175.007Z" transform="translate(-67.073 -1.184)" fill="#fff"/>
        <path id="패스_18" data-name="패스 18" d="M145.985,4.635l.172,0,3.214-.028-.026,17.364.18-.01c1.3-.072,1.943-.106,3.239-.173l.161-.008.026-17.2,3.218-.024h.169l0-3.176-10.354.006Z" transform="translate(-121.134 -1.147)" fill="#fff"/>
        <path id="패스_19" data-name="패스 19" d="M219.885,21.487l.178-.008c1.3-.057,1.944-.084,3.24-.135l.163-.006.011-8.115c1.564-.037,2.4-.055,4.017-.088l.167,0,0-3.119-.173,0c-1.615.025-2.45.039-4.01.067l.008-5.593q2.581-.016,5.162-.028l.169,0,0-3.111-8.911,0Z" transform="translate(-182.454 -1.122)" fill="#fff"/>
        <path id="패스_20" data-name="패스 20" d="M289.941,17.872l.018-16.538h-3.58l-.023,19.724.176,0c3.056-.09,5.862-.157,8.575-.208l.167,0,0-3.072-.173,0c-1.728.027-3.464.06-5.161.1" transform="translate(-237.609 -1.112)" fill="#fff"/>
        <path id="패스_21" data-name="패스 21" d="M351.979,20.792l.173,0c1.3-.02,1.945-.029,3.242-.044l.168,0,.01-19.424h-3.58Z" transform="translate(-292.062 -1.1)" fill="#fff"/>
        <path id="패스_22" data-name="패스 22" d="M395.643,10.732q1.684-4.6,3.365-9.194l.081-.222h-3.367l-.04.112q-1.17,3.321-2.341,6.641l-2.284-6.64-.039-.113H387.3l.081.222q1.68,4.6,3.365,9.195-1.805,4.88-3.607,9.76l-.083.224.245,0c1.214-.01,1.822-.013,3.036-.018h.121l.039-.112q1.26-3.583,2.521-7.166l2.532,7.274h.122c1.368,0,2.052.006,3.419.016l.244,0-.083-.224q-1.8-4.878-3.607-9.754" transform="translate(-321.165 -1.097)" fill="#fff"/>
        <path id="패스_23" data-name="패스 23" d="M515.844,1.326l-.022.141q-1.013,6.436-2.032,12.871Q512.68,7.9,511.564,1.463l-.024-.138h-4.82l.015,19.492.167,0c1.132.02,1.7.031,2.829.054l.174,0-.011-12.119q1.047,6.015,2.09,12.031l.023.135.14,0c1.226.03,1.839.046,3.065.08l.15,0,.023-.145q.946-6.038,1.887-12.076l.015,12.277.165,0c1.226.038,1.839.058,3.064.1l.176.006-.026-19.851Z" transform="translate(-420.462 -1.104)" fill="#fff"/>
        <path id="패스_24" data-name="패스 24" d="M616.543,1.36l-3.4,0,.023,15.531a1.86,1.86,0,0,1-.43,1.393,1.408,1.408,0,0,1-1.069.308c-1.048-.041-1.517-.6-1.519-1.819l-.022-15.415-3.58,0,.021,15.108a5.087,5.087,0,0,0,5,5.317c.12.008.238.012.356.012a4.558,4.558,0,0,0,3.155-1.206,4.957,4.957,0,0,0,1.494-3.782Z" transform="translate(-503.292 -1.13)" fill="#fff"/>
        <path id="패스_25" data-name="패스 25" d="M686.71,9.477c-1.417-1.291-2.727-2.715-2.72-4.384a2.047,2.047,0,0,1,.45-1.51,1.347,1.347,0,0,1,.995-.322c.675.006,1.451.225,1.454,1.879V6.156l.167,0,3.062.055.174,0V5.4a5.524,5.524,0,0,0-1.576-4.091A4.593,4.593,0,0,0,685.34,0a5,5,0,0,0-3.523,1.492,5.084,5.084,0,0,0-1.407,3.764c.1,2.99,1.993,5.074,3.627,6.555,1.348,1.222,2.725,2.706,2.719,4.442a1.941,1.941,0,0,1-.45,1.454,1.366,1.366,0,0,1-1.046.291c-1.035-.054-1.518-.659-1.52-1.9l0-1.615-.163-.007c-1.225-.05-1.838-.075-3.063-.122l-.177-.007,0,1.406a5.267,5.267,0,0,0,4.992,5.539q.216.018.427.018a4.232,4.232,0,0,0,2.863-1.069,5.486,5.486,0,0,0,1.716-4.031c.019-2.258-1.2-4.524-3.625-6.733" transform="translate(-564.518 0)" fill="#fff"/>
        <path id="패스_26" data-name="패스 26" d="M754.806,1.45l.025,21.322.158.011c1.294.092,1.942.139,3.235.235l.183.014-.021-21.578Z" transform="translate(-626.316 -1.209)" fill="#fff"/>
        <path id="패스_27" data-name="패스 27" d="M803.007,17.368V14.25l-.16-.009c-1.224-.07-1.835-.1-3.059-.172l-.18-.01V17.38a2.094,2.094,0,0,1-.473,1.579,1.306,1.306,0,0,1-1.019.269c-.652-.048-1.519-.315-1.52-2.069l-.007-11.74a2.206,2.206,0,0,1,.484-1.618,1.39,1.39,0,0,1,1.02-.338c.648.008,1.511.226,1.511,2.025v2.52l.165.005,3.061.094.176.005V5.78a6.016,6.016,0,0,0-1.591-4.446A4.724,4.724,0,0,0,798.007.006H798a4.8,4.8,0,0,0-3.538,1.448,5.444,5.444,0,0,0-1.446,4.119l.009,11.168A5.577,5.577,0,0,0,798,22.708a4.887,4.887,0,0,0,.561.033,4.032,4.032,0,0,0,2.74-1.027,5.624,5.624,0,0,0,1.709-4.346" transform="translate(-658.009 -0.005)" fill="#fff"/>
      </g>
    </g>
    <rect id="사각형_26" data-name="사각형 26" width="145" height="23" transform="translate(206 -97)" fill="none"/>
  </g>
</svg>
